<?xml version="1.0" standalone="no"?>
<!DOCTYPE svg PUBLIC "-//W3C//DTD SVG 20010904//EN"
 "http://www.w3.org/TR/2001/REC-SVG-20010904/DTD/svg10.dtd">
<svg version="1.0" xmlns="http://www.w3.org/2000/svg"
 width="512.000000pt" height="512.000000pt" viewBox="0 0 512.000000 512.000000"
 preserveAspectRatio="xMidYMid meet">

<g transform="translate(0.000000,512.000000) scale(0.100000,-0.100000)"
fill="#000000" stroke="none">
<path d="M1853 4845 c-117 -32 -203 -102 -258 -211 -28 -55 -30 -67 -30 -169
0 -104 2 -114 32 -176 41 -82 111 -150 201 -192 60 -29 76 -32 157 -31 104 0
164 20 244 78 142 105 193 320 114 486 -83 175 -275 264 -460 215z"/>
<path d="M3003 3050 c-12 -5 -26 -18 -32 -29 -7 -13 -11 -151 -11 -404 0 -463
-9 -433 122 -430 156 4 315 62 408 149 162 152 130 422 -68 568 -70 51 -201
110 -299 135 -91 23 -89 23 -120 11z m248 -225 c117 -59 189 -150 189 -239 -1
-115 -91 -196 -257 -230 l-63 -14 0 269 0 268 38 -13 c21 -8 63 -26 93 -41z"/>
<path d="M1400 2967 c-32 -16 -47 -58 -34 -94 14 -41 48 -53 147 -53 l87 0 0
-294 c0 -265 2 -296 18 -315 26 -32 72 -37 105 -11 l27 21 0 299 0 298 99 4
c117 4 141 17 141 79 0 29 -6 42 -26 58 -25 20 -39 21 -283 21 -185 0 -263 -4
-281 -13z"/>
<path d="M2242 2966 c-136 -44 -229 -183 -240 -358 -8 -130 33 -250 114 -333
61 -63 122 -89 204 -89 116 0 211 71 274 203 30 63 31 72 31 191 0 119 -1 128
-31 191 -18 37 -49 85 -70 109 -72 80 -190 116 -282 86z m164 -191 c102 -106
96 -310 -12 -405 -69 -60 -155 -30 -208 72 -25 49 -29 68 -29 138 0 70 4 89
29 138 35 68 81 102 137 102 35 0 46 -6 83 -45z"/>
<path d="M4003 2966 c-161 -51 -267 -256 -236 -456 45 -289 308 -422 495 -251
66 60 104 133 125 240 15 74 15 88 0 162 -21 106 -59 180 -125 240 -79 72
-165 94 -259 65z m157 -182 c49 -45 80 -123 80 -204 0 -125 -76 -240 -158
-240 -93 0 -162 103 -162 240 0 138 69 240 162 240 29 0 47 -8 78 -36z"/>
</g>
</svg>
